<mxfile host="Electron" agent="Mozilla/5.0 (Windows NT 10.0; Win64; x64) AppleWebKit/537.36 (KHTML, like Gecko) draw.io/26.0.4 Chrome/128.0.6613.186 Electron/32.2.5 Safari/537.36" version="26.0.4">
  <diagram name="Page-1" id="e5sE7jgMJM4nQPkcs3wu">
    <mxGraphModel dx="1036" dy="606" grid="1" gridSize="10" guides="1" tooltips="1" connect="1" arrows="1" fold="1" page="1" pageScale="1" pageWidth="850" pageHeight="1100" math="0" shadow="0">
      <root>
        <mxCell id="0" />
        <mxCell id="1" parent="0" />
        <mxCell id="sfpw1DJitC0pyUbAKJhk-1" value="Get The Number of records" style="shape=parallelogram;perimeter=parallelogramPerimeter;whiteSpace=wrap;html=1;fixedSize=1;fillColor=#dae8fc;strokeColor=#6c8ebf;" vertex="1" parent="1">
          <mxGeometry x="270" y="170" width="230" height="50" as="geometry" />
        </mxCell>
        <mxCell id="sfpw1DJitC0pyUbAKJhk-19" style="edgeStyle=orthogonalEdgeStyle;rounded=0;orthogonalLoop=1;jettySize=auto;html=1;exitX=0.5;exitY=1;exitDx=0;exitDy=0;entryX=0.5;entryY=0;entryDx=0;entryDy=0;" edge="1" parent="1" source="sfpw1DJitC0pyUbAKJhk-10" target="sfpw1DJitC0pyUbAKJhk-1">
          <mxGeometry relative="1" as="geometry" />
        </mxCell>
        <mxCell id="sfpw1DJitC0pyUbAKJhk-10" value="If new record exist in ACQ ?" style="rhombus;whiteSpace=wrap;html=1;fillColor=#dae8fc;strokeColor=#6c8ebf;" vertex="1" parent="1">
          <mxGeometry x="250" y="70" width="270" height="80" as="geometry" />
        </mxCell>
        <mxCell id="sfpw1DJitC0pyUbAKJhk-15" style="edgeStyle=orthogonalEdgeStyle;rounded=0;orthogonalLoop=1;jettySize=auto;html=1;exitX=0.5;exitY=1;exitDx=0;exitDy=0;" edge="1" parent="1" source="sfpw1DJitC0pyUbAKJhk-12" target="sfpw1DJitC0pyUbAKJhk-14">
          <mxGeometry relative="1" as="geometry" />
        </mxCell>
        <mxCell id="sfpw1DJitC0pyUbAKJhk-12" value="Read Trip 1 Coil Current Wave" style="shape=parallelogram;perimeter=parallelogramPerimeter;whiteSpace=wrap;html=1;fixedSize=1;fillColor=#dae8fc;strokeColor=#6c8ebf;" vertex="1" parent="1">
          <mxGeometry x="260" y="240" width="230" height="30" as="geometry" />
        </mxCell>
        <mxCell id="sfpw1DJitC0pyUbAKJhk-13" style="edgeStyle=orthogonalEdgeStyle;rounded=0;orthogonalLoop=1;jettySize=auto;html=1;exitX=0.5;exitY=1;exitDx=0;exitDy=0;entryX=0.546;entryY=-0.02;entryDx=0;entryDy=0;entryPerimeter=0;" edge="1" parent="1" source="sfpw1DJitC0pyUbAKJhk-1" target="sfpw1DJitC0pyUbAKJhk-12">
          <mxGeometry relative="1" as="geometry" />
        </mxCell>
        <mxCell id="sfpw1DJitC0pyUbAKJhk-17" style="edgeStyle=orthogonalEdgeStyle;rounded=0;orthogonalLoop=1;jettySize=auto;html=1;exitX=0.5;exitY=1;exitDx=0;exitDy=0;" edge="1" parent="1" source="sfpw1DJitC0pyUbAKJhk-14" target="sfpw1DJitC0pyUbAKJhk-16">
          <mxGeometry relative="1" as="geometry" />
        </mxCell>
        <mxCell id="sfpw1DJitC0pyUbAKJhk-14" value="Read Trip 2 Coil Current Wave" style="shape=parallelogram;perimeter=parallelogramPerimeter;whiteSpace=wrap;html=1;fixedSize=1;fillColor=#dae8fc;strokeColor=#6c8ebf;" vertex="1" parent="1">
          <mxGeometry x="260" y="290" width="230" height="30" as="geometry" />
        </mxCell>
        <mxCell id="sfpw1DJitC0pyUbAKJhk-21" style="edgeStyle=orthogonalEdgeStyle;rounded=0;orthogonalLoop=1;jettySize=auto;html=1;exitX=0.5;exitY=1;exitDx=0;exitDy=0;entryX=0.5;entryY=0;entryDx=0;entryDy=0;" edge="1" parent="1" source="sfpw1DJitC0pyUbAKJhk-16" target="sfpw1DJitC0pyUbAKJhk-20">
          <mxGeometry relative="1" as="geometry" />
        </mxCell>
        <mxCell id="sfpw1DJitC0pyUbAKJhk-16" value="Read Close Coil Current Wave" style="shape=parallelogram;perimeter=parallelogramPerimeter;whiteSpace=wrap;html=1;fixedSize=1;fillColor=#dae8fc;strokeColor=#6c8ebf;" vertex="1" parent="1">
          <mxGeometry x="260" y="340" width="230" height="30" as="geometry" />
        </mxCell>
        <mxCell id="sfpw1DJitC0pyUbAKJhk-23" style="edgeStyle=orthogonalEdgeStyle;rounded=0;orthogonalLoop=1;jettySize=auto;html=1;exitX=0.5;exitY=1;exitDx=0;exitDy=0;entryX=0.5;entryY=0;entryDx=0;entryDy=0;" edge="1" parent="1" source="sfpw1DJitC0pyUbAKJhk-20" target="sfpw1DJitC0pyUbAKJhk-22">
          <mxGeometry relative="1" as="geometry" />
        </mxCell>
        <mxCell id="sfpw1DJitC0pyUbAKJhk-20" value="Read Voltage Wave" style="shape=parallelogram;perimeter=parallelogramPerimeter;whiteSpace=wrap;html=1;fixedSize=1;fillColor=#dae8fc;strokeColor=#6c8ebf;" vertex="1" parent="1">
          <mxGeometry x="260" y="390" width="230" height="30" as="geometry" />
        </mxCell>
        <mxCell id="sfpw1DJitC0pyUbAKJhk-25" style="edgeStyle=orthogonalEdgeStyle;rounded=0;orthogonalLoop=1;jettySize=auto;html=1;exitX=0.5;exitY=1;exitDx=0;exitDy=0;entryX=0.5;entryY=0;entryDx=0;entryDy=0;" edge="1" parent="1" source="sfpw1DJitC0pyUbAKJhk-22" target="sfpw1DJitC0pyUbAKJhk-24">
          <mxGeometry relative="1" as="geometry" />
        </mxCell>
        <mxCell id="sfpw1DJitC0pyUbAKJhk-22" value="Read Phase A B C Current Waves" style="shape=parallelogram;perimeter=parallelogramPerimeter;whiteSpace=wrap;html=1;fixedSize=1;fillColor=#dae8fc;strokeColor=#6c8ebf;" vertex="1" parent="1">
          <mxGeometry x="260" y="440" width="230" height="30" as="geometry" />
        </mxCell>
        <mxCell id="sfpw1DJitC0pyUbAKJhk-24" value="Read Initiate And Contact Wave" style="shape=parallelogram;perimeter=parallelogramPerimeter;whiteSpace=wrap;html=1;fixedSize=1;fillColor=#dae8fc;strokeColor=#6c8ebf;" vertex="1" parent="1">
          <mxGeometry x="260" y="490" width="230" height="30" as="geometry" />
        </mxCell>
      </root>
    </mxGraphModel>
  </diagram>
</mxfile>
